<svg xmlns="http://www.w3.org/2000/svg" viewBox="0 0 205.96 91.26"><defs><style>.cls-1,.cls-4{fill:#999;}.cls-1,.cls-2,.cls-3{stroke:#999;}.cls-1,.cls-3{stroke-miterlimit:10;}.cls-2{fill:none;stroke-linejoin:round;}.cls-3{fill:#444;}</style></defs><title>Asset 2</title><g id="Layer_2" data-name="Layer 2"><g id="Layer_2-2" data-name="Layer 2"><path class="cls-1" d="M17.85,79.75a5.34,5.34,0,0,1-1.08,1.69h0a1.51,1.51,0,0,1-1.19.4h-4.2c-.82,0-1.12-.28-1.29-.56a2.7,2.7,0,0,1-.27-2l2.39-13.56a4.09,4.09,0,0,1,1.15-2.26,2.55,2.55,0,0,1,1.93-.82h4.2c.38,0,.68.07.74.18a3.15,3.15,0,0,1,.37,1.5l.06,1.44h9.12l.1-1.39a11.84,11.84,0,0,0-.39-4.08,9.33,9.33,0,0,0-1.76-3.4,8.54,8.54,0,0,0-3.05-2.33,9.66,9.66,0,0,0-4.1-.84H16.3a12.08,12.08,0,0,0-4.54.89A14.4,14.4,0,0,0,7.83,57a14.12,14.12,0,0,0-3,3.53,12.51,12.51,0,0,0-1.66,4.37L.68,79.12A10.51,10.51,0,0,0,.81,83.6a9.46,9.46,0,0,0,1.86,3.72A9.33,9.33,0,0,0,6,89.84a10.2,10.2,0,0,0,4.34.92h4.29a11.66,11.66,0,0,0,4.25-.8,13.39,13.39,0,0,0,3.63-2.15,14.21,14.21,0,0,0,2.77-3.15A14.52,14.52,0,0,0,27,80.75l.54-1.91H18.24Z"/><path class="cls-1" d="M54.08,53.72h0a3,3,0,0,0-1,5.81l-1.47,8.35H43.71L46.2,53.72H36.78a3,3,0,0,0-1,5.82l-5.5,31.22h9.4l2.51-14.2h7.87l-2.5,14.2h9.36l6.53-37Z"/><path class="cls-1" d="M69.36,53.72h0a3,3,0,0,0-1,5.8l-5.5,31.23h9.36l6.53-37Z"/><path class="cls-1" d="M95.17,79.75a5.52,5.52,0,0,1-1.08,1.69h0a1.51,1.51,0,0,1-1.19.4H88.7c-.83,0-1.12-.28-1.29-.56a2.7,2.7,0,0,1-.27-2l2.39-13.56a4.09,4.09,0,0,1,1.15-2.26,2.55,2.55,0,0,1,1.93-.82h4.2c.38,0,.68.07.74.18a3.15,3.15,0,0,1,.37,1.5L98,65.76h9.12l.1-1.39a11.84,11.84,0,0,0-.39-4.08,9.33,9.33,0,0,0-1.76-3.4,8.62,8.62,0,0,0-3-2.33,9.69,9.69,0,0,0-4.1-.84H93.62a12.08,12.08,0,0,0-4.54.89,14.22,14.22,0,0,0-6.92,5.9,12.69,12.69,0,0,0-1.65,4.37L78,79.12a10.51,10.51,0,0,0,.13,4.48A9.46,9.46,0,0,0,80,87.32a9.33,9.33,0,0,0,3.28,2.52,10.2,10.2,0,0,0,4.34.92h4.28a11.71,11.71,0,0,0,4.26-.8,13.39,13.39,0,0,0,3.63-2.15,14.21,14.21,0,0,0,2.77-3.15,14.52,14.52,0,0,0,1.76-3.91l.54-1.91H95.56Z"/><path class="cls-1" d="M132,84.26l-6.81-12L142.6,53.72H131.89l-10,10.61,1.87-10.61h-9.49a3,3,0,0,0-1,5.81l-5.5,31.23h9.48l2-11,6.45,11h10.11l-1.31-2.25Z"/><polygon class="cls-1" points="168.66 76.56 170.19 67.88 153.23 67.88 154.18 62.48 171.14 62.48 172.68 53.72 146.24 53.72 139.71 90.76 166.15 90.76 167.7 82 150.74 82 151.7 76.56 168.66 76.56"/><path class="cls-1" d="M196.36,53.72h0a3,3,0,0,0-1,5.81l-2.14,12.13-6.06-17.94h-8.41a3,3,0,0,0-1,5.81l-5.51,31.23h9.13L184.45,73l6.09,17.78h8.29l6.53-37Z"/><path class="cls-1" d="M85.39,10.54l-5.5,31.22H89L92.15,24l6.09,17.78h8.29l6.53-37h-9a3,3,0,0,0-1,5.81l-2.14,12.13L94.83,4.72H86.4a3,3,0,0,0-1,5.82Z"/><path class="cls-1" d="M25.29,41.89,28.43,24.1l6.09,17.79h8.29l6.53-37h-9a3,3,0,0,0-1,5.8L37.18,22.79,31.11,4.85H22.62a3,3,0,0,0-.95,5.83l-5.5,31.21Z"/><polygon class="cls-1" points="73.85 41.76 75.4 33 58.44 33 59.4 27.56 76.36 27.56 77.89 18.88 60.93 18.88 61.88 13.48 78.84 13.48 80.39 4.72 53.94 4.72 47.41 41.76 73.85 41.76"/><polygon class="cls-1" points="137.57 41.76 139.12 33 122.16 33 123.12 27.56 140.08 27.56 141.61 18.88 124.65 18.88 125.6 13.48 142.56 13.48 144.1 4.72 117.66 4.72 111.13 41.76 137.57 41.76"/><path class="cls-2" d="M160.78,13.58l-.47-.57A3,3,0,0,0,157.87,12c-1.59.08-4-.19-4.68-2.5-.36-1.27.81-2.68,1.49-3.37a2.56,2.56,0,0,1,1.42-.75h.12a2.57,2.57,0,0,0,2.18-1.46,1.72,1.72,0,0,1,.65-.79,3.87,3.87,0,0,1,4.67.51c1,1,1.88,2,1,4.23a2.58,2.58,0,0,0,.52,2.52l1,1.16a2.94,2.94,0,0,0,1.78,1,26.33,26.33,0,0,1,14.53,7.79c7.17,7.44,7.11,10.82,7.11,10.82s.33,7.74-7.53,9.88c-7,1.91-12.72-2.94-13.87-4a3.08,3.08,0,0,1-.38-.43c-1.1-1.56-7.38-11-6.53-21A2.69,2.69,0,0,0,160.78,13.58Z"/><path class="cls-3" d="M167,12.37a25.6,25.6,0,0,1,15.57,7.91c7.17,7.44,7.11,10.82,7.11,10.82s.33,7.74-7.53,9.88-14.08-4.22-14.08-4.22-7.05-9.44-6.77-19.95a4.87,4.87,0,0,1,5.56-4.45Z"/><path class="cls-2" d="M180.59,12.33l.52-.59a2.94,2.94,0,0,1,2.46-1.05c1.52.14,3.89-.06,4.8-2.51.5-1.34-.44-2.89-1-3.65a2.18,2.18,0,0,0-1.27-.85l-.11,0A2.22,2.22,0,0,1,184.08,2a1.56,1.56,0,0,0-.52-.88,3.51,3.51,0,0,0-4.53.38C178,2.62,177,3.62,177.5,6a3.09,3.09,0,0,1-.81,2.66L175.6,9.91a3,3,0,0,1-1.83,1,26.89,26.89,0,0,0-14.87,7.81c-7.8,7.7-8.17,11.31-8.17,11.31s-1.28,8.25,6,10.81c6.47,2.28,12.54-2.7,13.77-3.81a2.92,2.92,0,0,0,.42-.44c1.24-1.63,8.43-11.45,8.88-22.2A3.34,3.34,0,0,1,180.59,12.33Z"/><path class="cls-3" d="M174.78,10.82s-8.08.2-15.88,7.9S150.73,30,150.73,30s-1.28,8.25,6,10.81,14-4,14-4,7.92-9.84,9-21.06a4.42,4.42,0,0,0-4.77-4.95Z"/><path class="cls-4" d="M198.49,43.59a4,4,0,1,1,4-4A4,4,0,0,1,198.49,43.59Zm0-7.27a3.27,3.27,0,1,0,3.27,3.27A3.26,3.26,0,0,0,198.49,36.32Z"/><path class="cls-4" d="M199.56,41.22a2.34,2.34,0,0,1-1,.2,1.67,1.67,0,0,1-1.75-1.79,1.78,1.78,0,0,1,1.89-1.87,2.08,2.08,0,0,1,.88.18l-.14.49a1.59,1.59,0,0,0-.74-.16,1.32,1.32,0,0,0,0,2.64,1.82,1.82,0,0,0,.79-.17Z"/></g></g></svg>