<svg xmlns="http://www.w3.org/2000/svg" viewBox="0 0 213.93 90.04"><defs><style>.cls-1{fill:#222;}.cls-2{fill:#fff;}.cls-3{fill:#212121;}.cls-4{fill:#e29538;}</style></defs><title>Asset 1</title><g id="Layer_2" data-name="Layer 2"><g id="Layer_2-2" data-name="Layer 2"><polygon class="cls-1" points="138.64 80 13.22 80 23.75 18 149.16 18 138.64 80"/><path class="cls-1" d="M161.53,10.63h-6.85c-10.14,0-24.43,36-9.8,36.42s32.91,0,32.91,0,13.45-3.24,13.62-13.84C191.51,27.59,178.54,21,161.53,10.63Z"/><path class="cls-2" d="M104.18,43a2,2,0,0,1-1.89-1.35L98.71,31.24,96.92,41.39A2,2,0,0,1,95,43H85.82a2,2,0,0,1-1.53-.72,2,2,0,0,1-.44-1.63l5.27-29.88A5,5,0,0,1,92.34,2h8.43a2,2,0,0,1,1.89,1.36l3.56,10.52.54-3.07A5,5,0,0,1,110,2h9a2,2,0,0,1,1.53.71A2,2,0,0,1,121,4.35l-6.53,37a2,2,0,0,1-2,1.65Z"/><path class="cls-1" d="M119,4l-6.53,37h-8.29L98.09,23.25,95,41H85.82L91.33,9.81a3,3,0,0,1,1-5.81h8.43l6.06,17.94L109,9.81A3,3,0,0,1,110,4h9m0-4h-9a7,7,0,0,0-5.46,2.63A4,4,0,0,0,100.77,0H92.34A7,7,0,0,0,87,11.48L81.88,40.34a4,4,0,0,0,.88,3.27A4,4,0,0,0,85.82,45H95a4,4,0,0,0,3.94-3.31l.44-2.5,1.07,3.11a4,4,0,0,0,3.78,2.7h8.29a4,4,0,0,0,3.94-3.31l6.53-37A4,4,0,0,0,119,0Z"/><path class="cls-2" d="M38,43.17a2,2,0,0,1-1.89-1.35L32.55,31.37,30.76,41.52a2,2,0,0,1-2,1.65H19.67a2,2,0,0,1-1.53-.72,2,2,0,0,1-.44-1.63L23,11a5,5,0,0,1,3.16-8.86h8.49a2,2,0,0,1,1.9,1.36L40.07,14l.54-3.09a5,5,0,0,1,3-8.78h9.19a2,2,0,0,1,1.53.71,2,2,0,0,1,.44,1.64l-6.54,37a2,2,0,0,1-2,1.65Z"/><path class="cls-1" d="M52.85,4.13l-6.53,37H38L31.93,23.38,28.79,41.17H19.67L25.17,10a3,3,0,0,1,.95-5.83h8.49l6.07,17.94L42.82,9.93a3,3,0,0,1,1-5.8h9m0-4H43.54a7,7,0,0,0-5.16,2.64A4,4,0,0,0,34.61.13H26.12a7,7,0,0,0-5.31,11.55L15.73,40.47a4,4,0,0,0,.87,3.27,4,4,0,0,0,3.07,1.43h9.12a4,4,0,0,0,3.94-3.31l.45-2.5,1.06,3.1A4,4,0,0,0,38,45.17h8.3a4,4,0,0,0,3.93-3.31l6.53-37A4,4,0,0,0,52.85.13Z"/><path class="cls-2" d="M52.85,43a2,2,0,0,1-1.54-.72,2,2,0,0,1-.43-1.63l6.53-37a2,2,0,0,1,2-1.65H85.82a2,2,0,0,1,2,2.35l-1.54,8.76a2,2,0,0,1-2,1.65H69l-.25,1.4H83.33a2,2,0,0,1,1.53.71,2,2,0,0,1,.44,1.64l-1.54,8.68a2,2,0,0,1-2,1.65H66.51l-.25,1.44H80.84a2,2,0,0,1,1.53.71,2,2,0,0,1,.44,1.64l-1.55,8.76a2,2,0,0,1-2,1.65Z"/><path class="cls-1" d="M85.82,4l-1.54,8.76h-17l-.95,5.4h17l-1.54,8.68h-17l-1,5.44h17L79.29,41H52.85L59.38,4H85.82m0-4H59.38a4,4,0,0,0-3.94,3.31l-6.53,37A4,4,0,0,0,52.85,45H79.29a4,4,0,0,0,3.94-3.31L84.78,33a4,4,0,0,0-.61-2.91,4,4,0,0,0,1.56-2.53l1.54-8.68a4,4,0,0,0-.6-2.88,4.07,4.07,0,0,0,1.55-2.52l1.54-8.76A4,4,0,0,0,85.82,0Z"/><path class="cls-2" d="M119,43a2,2,0,0,1-1.53-.72,2,2,0,0,1-.44-1.63l6.53-37a2,2,0,0,1,2-1.65H152a2,2,0,0,1,1.53.71A2,2,0,0,1,154,4.35l-1.55,8.76a2,2,0,0,1-2,1.65H135.15l-.25,1.4h14.58a2,2,0,0,1,1.53.71,2,2,0,0,1,.44,1.64l-1.53,8.68a2,2,0,0,1-2,1.65H132.67l-.26,1.44H147a2,2,0,0,1,1.53.71,2,2,0,0,1,.44,1.64l-1.54,8.76a2,2,0,0,1-2,1.65Z"/><path class="cls-1" d="M152,4l-1.55,8.76h-17l-.95,5.4h17L148,26.84H131l-1,5.44h17L145.45,41H119l6.53-37H152m0-4H125.53a4,4,0,0,0-3.94,3.31l-6.53,37a4,4,0,0,0,.88,3.27A4,4,0,0,0,119,45h26.45a4,4,0,0,0,3.94-3.31L150.93,33a4,4,0,0,0-.61-2.91,4,4,0,0,0,1.57-2.53l1.53-8.68a4,4,0,0,0-.59-2.88,4,4,0,0,0,1.54-2.52l1.55-8.76A4,4,0,0,0,152,0Z"/><path class="cls-2" d="M182.29,44.34c-5.75,0-10.08-3.61-11.28-4.72a4,4,0,0,1-.51-.59c-1.27-1.8-7.58-11.33-6.71-21.67a1.71,1.71,0,0,0-.37-1.22l-.47-.57a2,2,0,0,0-1.51-.71h-.63c-2.76,0-4.59-1.15-5.18-3.24-.49-1.74.88-3.47,1.74-4.34a3.54,3.54,0,0,1,2-1l.17,0a1.62,1.62,0,0,0,1.35-.82,2.68,2.68,0,0,1,1-1.27,4.88,4.88,0,0,1,6,.66c1,1.1,2.29,2.46,1.25,5.27a1.55,1.55,0,0,0,.34,1.52l1,1.16a1.9,1.9,0,0,0,1.17.66A27.36,27.36,0,0,1,186.7,21.5C194,29,194.11,32.65,194.1,33c0,0,.26,8.5-8.27,10.82A13.31,13.31,0,0,1,182.29,44.34Z"/><path class="cls-3" d="M164.45,4.43a3.68,3.68,0,0,1,2.68,1.07c1,1,1.87,2,1,4.23a2.55,2.55,0,0,0,.52,2.51l1,1.17a2.94,2.94,0,0,0,1.78,1A26.31,26.31,0,0,1,186,22.2C193.15,29.64,193.1,33,193.1,33s.33,7.74-7.53,9.88a12.41,12.41,0,0,1-3.28.44c-5.46,0-9.63-3.56-10.6-4.45a3.08,3.08,0,0,1-.37-.44c-1.1-1.55-7.38-11-6.54-21a2.67,2.67,0,0,0-.59-1.95l-.47-.57a3,3,0,0,0-2.28-1.07h-.63c-1.57,0-3.63-.42-4.22-2.51-.35-1.27.82-2.68,1.5-3.37a2.49,2.49,0,0,1,1.42-.75l.11,0a2.54,2.54,0,0,0,2.19-1.45,1.63,1.63,0,0,1,.65-.79,3.64,3.64,0,0,1,2-.56m0-2a5.68,5.68,0,0,0-3.09.89A3.65,3.65,0,0,0,160,5a.88.88,0,0,1-.54.21l-.2,0a4.5,4.5,0,0,0-2.55,1.33c-1.77,1.8-2.46,3.64-2,5.31.7,2.52,2.94,4,6.14,4h.63a1,1,0,0,1,.73.34l.48.57a.71.71,0,0,1,.14.51c-.9,10.68,5.59,20.47,6.9,22.33a4.34,4.34,0,0,0,.63.73c1.27,1.18,5.86,5,12,5a14.38,14.38,0,0,0,3.8-.51,12,12,0,0,0,9-11.87c0-.89-.57-4.78-7.68-12.15a28.3,28.3,0,0,0-15.65-8.37,1,1,0,0,1-.57-.32l-1-1.17a.61.61,0,0,1-.18-.52,5.43,5.43,0,0,0-1.45-6.3,5.64,5.64,0,0,0-4.14-1.7Z"/><path class="cls-4" d="M182.29,44.34c-6.59,0-11.33-4.76-11.52-5l-.05-.05,0,0c-.3-.4-7.25-9.85-7-20.58a5.83,5.83,0,0,1,6.07-5.45l.58,0h.14a26.42,26.42,0,0,1,16.2,8.21C194,29,194.11,32.65,194.1,33c0,0,.26,8.5-8.27,10.82A13.31,13.31,0,0,1,182.29,44.34Z"/><path class="cls-3" d="M169.78,14.25l.5,0,.14,0A25.57,25.57,0,0,1,186,22.2C193.15,29.64,193.1,33,193.1,33s.33,7.74-7.53,9.88a12.41,12.41,0,0,1-3.28.44c-6.25,0-10.81-4.66-10.81-4.66s-7-9.44-6.77-19.95a4.83,4.83,0,0,1,5.07-4.48m0-2h0a6.81,6.81,0,0,0-7.06,6.43c-.29,11.07,6.85,20.79,7.16,21.2l.08.1.09.1c.21.21,5.23,5.26,12.24,5.26a14.38,14.38,0,0,0,3.8-.51,12,12,0,0,0,9-11.87c0-.89-.57-4.78-7.68-12.15a27.63,27.63,0,0,0-16.85-8.52h-.12l-.67,0Z"/><path class="cls-2" d="M163.58,44.35a11.42,11.42,0,0,1-3.81-.65c-7.94-2.8-6.63-11.82-6.62-11.91,0-.35.63-4.14,8.45-11.86A27.82,27.82,0,0,1,177,11.84a2,2,0,0,0,1.22-.69l1.09-1.21a2.11,2.11,0,0,0,.58-1.78,5.22,5.22,0,0,1,1.79-5.4A4.64,4.64,0,0,1,185,1.42a4,4,0,0,1,2.61.9,2.51,2.51,0,0,1,.85,1.41,1.28,1.28,0,0,0,1.09.86l0,1,.2-1a3.14,3.14,0,0,1,1.87,1.23c.7,1,1.79,2.83,1.13,4.6a4.92,4.92,0,0,1-5,3.19c-.28,0-.55,0-.8,0h-.15a2,2,0,0,0-1.47.72l-.53.6a2.32,2.32,0,0,0-.56,1.44c-.46,11-7.66,20.89-9.09,22.76a4.46,4.46,0,0,1-.55.59c-1.22,1.09-5.62,4.65-11,4.65Z"/><path class="cls-3" d="M185,2.42a3.08,3.08,0,0,1,2,.66,1.65,1.65,0,0,1,.52.87,2.24,2.24,0,0,0,1.91,1.63l.11,0a2.08,2.08,0,0,1,1.26.85c.56.76,1.5,2.31,1,3.65a4,4,0,0,1-4.09,2.54,5.33,5.33,0,0,1-.71,0h-.24a3,3,0,0,0-2.22,1.06l-.53.6a3.3,3.3,0,0,0-.81,2.06c-.45,10.75-7.64,20.57-8.89,22.19a2.92,2.92,0,0,1-.41.45c-1,.9-5.25,4.4-10.3,4.4a10.31,10.31,0,0,1-3.47-.6c-7.25-2.55-6-10.8-6-10.8s.37-3.61,8.17-11.31a26.83,26.83,0,0,1,14.86-7.81,3.06,3.06,0,0,0,1.84-1l1.09-1.21A3.15,3.15,0,0,0,180.91,8c-.52-2.41.47-3.41,1.53-4.49a3.58,3.58,0,0,1,2.56-1m0-2h0a5.63,5.63,0,0,0-4,1.64A6.2,6.2,0,0,0,179,8.37a1.18,1.18,0,0,1-.34.91l-1.09,1.21a1.08,1.08,0,0,1-.62.36,28.86,28.86,0,0,0-16,8.37c-7.68,7.58-8.63,11.57-8.74,12.45-.52,3.44.33,10.52,7.28,13a12.38,12.38,0,0,0,4.14.71c5.69,0,10.34-3.76,11.63-4.91a4.64,4.64,0,0,0,.67-.72c1.47-1.92,8.82-12,9.3-23.33a1.32,1.32,0,0,1,.31-.82L186,15a1,1,0,0,1,.72-.38h0c.31,0,.61,0,.9,0a6,6,0,0,0,6-3.84c.61-1.64.16-3.61-1.27-5.54a4.15,4.15,0,0,0-2.47-1.62l-.1,0h0l-.07,0a.45.45,0,0,1-.28-.12,3.49,3.49,0,0,0-1.18-1.93A5,5,0,0,0,185,.42Z"/><path class="cls-4" d="M163.58,44.35a11.42,11.42,0,0,1-3.81-.65c-7.94-2.8-6.63-11.82-6.62-11.91,0-.35.63-4.14,8.45-11.86,8-7.89,16.21-8.19,16.56-8.2h.46a5.44,5.44,0,0,1,4.08,1.75,5.54,5.54,0,0,1,1.38,4.3C183,29.16,175.22,39,174.89,39.37l0,.05,0,0c-.21.2-5.09,4.89-11.22,4.89Z"/><path class="cls-3" d="M178.62,12.72a4.4,4.4,0,0,1,4.47,5c-1.06,11.23-9,21.07-9,21.07s-4.73,4.61-10.53,4.61a10.31,10.31,0,0,1-3.47-.6c-7.25-2.55-6-10.8-6-10.8s.37-3.61,8.17-11.31,15.88-7.91,15.88-7.91h.43m0-2h-.55c-.86,0-9.18.58-17.17,8.48-7.68,7.58-8.63,11.57-8.74,12.45-.52,3.44.33,10.52,7.28,13a12.38,12.38,0,0,0,4.14.71c6.54,0,11.71-5,11.93-5.18l.08-.08.08-.09c.34-.43,8.31-10.45,9.41-22.14a6.67,6.67,0,0,0-1.64-5.07,6.41,6.41,0,0,0-4.82-2.07Z"/><path class="cls-1" d="M202.24,42.87a4,4,0,1,1,4-4A4,4,0,0,1,202.24,42.87Zm0-7.28a3.28,3.28,0,1,0,3.27,3.28A3.28,3.28,0,0,0,202.24,35.59Z"/><path class="cls-1" d="M203.31,40.49a2.31,2.31,0,0,1-1,.21,1.67,1.67,0,0,1-1.76-1.8,1.8,1.8,0,0,1,1.9-1.87,2.24,2.24,0,0,1,.88.18l-.14.5a1.49,1.49,0,0,0-.74-.17,1.22,1.22,0,0,0-1.25,1.33,1.21,1.21,0,0,0,1.22,1.32,1.8,1.8,0,0,0,.79-.18Z"/><rect class="cls-1" x="9.87" y="49" width="195.95" height="37.04"/><path class="cls-2" d="M13.8,88a12,12,0,0,1-5.19-1.11,11.42,11.42,0,0,1-4-3.06,11.71,11.71,0,0,1-2.25-4.5,12.49,12.49,0,0,1-.16-5.32L4.72,59.81a14.71,14.71,0,0,1,1.92-5.06A16.19,16.19,0,0,1,14.51,48a14.23,14.23,0,0,1,5.29-1h4.28A11.67,11.67,0,0,1,29,48a10.72,10.72,0,0,1,3.76,2.87A11.45,11.45,0,0,1,34.92,55a13.59,13.59,0,0,1,.45,4.77l-.1,1.39a2,2,0,0,1-2,1.86H24.16a2,2,0,0,1-2-1.93l0-1.19H18.79a.58.58,0,0,0-.51.22,2.15,2.15,0,0,0-.6,1.21L15.29,74.91a.88.88,0,0,0,0,.21H19a4,4,0,0,0,.5-.87l.39-.92a2,2,0,0,1,1.84-1.21H31a2,2,0,0,1,1.6.79A2,2,0,0,1,33,74.66l-.54,1.91a16.56,16.56,0,0,1-2,4.45,15.86,15.86,0,0,1-3.17,3.6,15.3,15.3,0,0,1-4.18,2.48,13.72,13.72,0,0,1-5,.94Z"/><path class="cls-1" d="M24.08,49a9.63,9.63,0,0,1,4.1.84,8.42,8.42,0,0,1,3.05,2.33A9.25,9.25,0,0,1,33,55.57a11.82,11.82,0,0,1,.39,4.08L33.28,61H24.16l-.05-1.45a3.18,3.18,0,0,0-.38-1.5c-.06-.1-.36-.17-.74-.17h-4.2a2.58,2.58,0,0,0-1.93.81A4.15,4.15,0,0,0,15.71,61L13.32,74.56a2.7,2.7,0,0,0,.27,2c.17.28.47.56,1.29.56h4.2a1.5,1.5,0,0,0,1.19-.4h0A5.46,5.46,0,0,0,21.35,75l.39-.91H31L30.49,76a14.15,14.15,0,0,1-1.76,3.9A14,14,0,0,1,26,83.09a13.39,13.39,0,0,1-3.63,2.15,11.66,11.66,0,0,1-4.25.8H13.8a10.14,10.14,0,0,1-4.34-.92,9.19,9.19,0,0,1-3.29-2.53,9.52,9.52,0,0,1-1.86-3.72,10.46,10.46,0,0,1-.13-4.47L6.69,60.16a12.63,12.63,0,0,1,1.66-4.38,14.47,14.47,0,0,1,3-3.52,14.16,14.16,0,0,1,3.93-2.37A12.08,12.08,0,0,1,19.8,49h4.28m0-4H19.8a16.11,16.11,0,0,0-6,1.18,18.18,18.18,0,0,0-5,3,18.44,18.44,0,0,0-3.83,4.5,16.9,16.9,0,0,0-2.17,5.75L.24,73.71a14.48,14.48,0,0,0,.19,6.16,13.25,13.25,0,0,0,7.33,8.87,14.08,14.08,0,0,0,6,1.3h4.28A15.52,15.52,0,0,0,23.79,89a17,17,0,0,0,4.73-2.8,18,18,0,0,0,3.57-4.06,18.22,18.22,0,0,0,2.25-5l.54-1.91A4,4,0,0,0,31,70.12H21.74a4,4,0,0,0-3.68,2.43l-.24.57h-.19l2-11.2h.65A4,4,0,0,0,24.16,65h9.12a4,4,0,0,0,4-3.72l.1-1.39a15.67,15.67,0,0,0-.53-5.47,13.32,13.32,0,0,0-2.52-4.84,12.54,12.54,0,0,0-4.46-3.41A13.72,13.72,0,0,0,24.08,45Z"/><path class="cls-2" d="M50.69,88a2,2,0,0,1-2-2.35l2.09-11.85H47L44.79,86.39a2,2,0,0,1-2,1.65H33.41a2,2,0,0,1-1.53-.72,2,2,0,0,1-.44-1.63l5.27-29.88A5,5,0,0,1,39.93,47h9.42a2,2,0,0,1,1.53.71,2,2,0,0,1,.44,1.64L49.24,61.16h3.81l1-5.36A5,5,0,0,1,57.22,47h9.37a2,2,0,0,1,1.53.71,2,2,0,0,1,.44,1.64L62,86.39a2,2,0,0,1-2,1.65Z"/><path class="cls-1" d="M66.59,49,60.06,86H50.69l2.51-14.2H45.33L42.82,86H33.41l5.51-31.23a3,3,0,0,1,1-5.81h9.42L46.86,63.16h7.87l1.47-8.35a3,3,0,0,1,1-5.81h9.36m0-4H57.23a7,7,0,0,0-4.59,1.73,2.32,2.32,0,0,0-.22-.3A4,4,0,0,0,49.35,45H39.93a7,7,0,0,0-7,7,6.94,6.94,0,0,0,1.64,4.48L29.48,85.34A4,4,0,0,0,33.41,90h9.41a4,4,0,0,0,3.94-3.29A4,4,0,0,0,50.69,90h9.37A4,4,0,0,0,64,86.73l6.53-37A4,4,0,0,0,66.59,45Z"/><path class="cls-2" d="M66.59,88a2,2,0,0,1-1.53-.72,2,2,0,0,1-.44-1.63l5.27-29.9A5,5,0,0,1,73.12,47h9.37a2,2,0,0,1,1.53.71,2,2,0,0,1,.44,1.64l-6.53,37A2,2,0,0,1,76,88Z"/><path class="cls-1" d="M82.49,49,76,86H66.59L72.1,54.8a3,3,0,0,1,1-5.8h9.37m0-4H72.91a7,7,0,0,0-5.16,11.44l-5.1,28.89a4,4,0,0,0,.88,3.27A4,4,0,0,0,66.59,90H76a4,4,0,0,0,3.94-3.31l6.53-37A4,4,0,0,0,82.49,45Z"/><path class="cls-2" d="M92.28,88a12.08,12.08,0,0,1-5.19-1.11,11.22,11.22,0,0,1-6.23-7.56,12.49,12.49,0,0,1-.16-5.32l2.51-14.24a14.69,14.69,0,0,1,1.91-5.06A16.27,16.27,0,0,1,93,48a14.19,14.19,0,0,1,5.29-1h4.28a11.67,11.67,0,0,1,4.94,1,10.72,10.72,0,0,1,3.76,2.87A11.31,11.31,0,0,1,113.4,55a13.66,13.66,0,0,1,.46,4.78l-.1,1.39a2,2,0,0,1-2,1.86h-9.12a2,2,0,0,1-2-1.93l-.05-1.19H97.28a.57.57,0,0,0-.51.22,2.15,2.15,0,0,0-.6,1.21L93.78,74.91a.88.88,0,0,0,0,.21H97.5a4,4,0,0,0,.5-.87l.39-.92a2,2,0,0,1,1.84-1.21h9.29a2,2,0,0,1,1.59.79,2,2,0,0,1,.33,1.75l-.54,1.91a16.54,16.54,0,0,1-2,4.45,15.86,15.86,0,0,1-3.17,3.6,15.3,15.3,0,0,1-4.18,2.48,13.73,13.73,0,0,1-5,.94Z"/><path class="cls-1" d="M102.57,49a9.69,9.69,0,0,1,4.1.84,8.51,8.51,0,0,1,3,2.33,9.25,9.25,0,0,1,1.76,3.4,11.82,11.82,0,0,1,.39,4.08l-.1,1.39h-9.12l-.06-1.45a3.18,3.18,0,0,0-.37-1.5c-.06-.1-.36-.17-.74-.17h-4.2a2.58,2.58,0,0,0-1.93.81A4.15,4.15,0,0,0,94.2,61L91.81,74.56a2.7,2.7,0,0,0,.27,2c.17.28.46.56,1.29.56h4.2a1.51,1.51,0,0,0,1.19-.4h0A5.65,5.65,0,0,0,99.84,75l.39-.91h9.29L109,76a14.45,14.45,0,0,1-1.76,3.9,14.26,14.26,0,0,1-2.77,3.16,13.39,13.39,0,0,1-3.63,2.15,11.75,11.75,0,0,1-4.26.8H92.28a10.2,10.2,0,0,1-4.34-.92,9.24,9.24,0,0,1-3.28-2.53,9.39,9.39,0,0,1-1.86-3.72,10.46,10.46,0,0,1-.13-4.47l2.51-14.24a12.82,12.82,0,0,1,1.65-4.38,14.5,14.5,0,0,1,3-3.52,14.16,14.16,0,0,1,3.93-2.37A12.08,12.08,0,0,1,98.29,49h4.28m0-4H98.29a16.12,16.12,0,0,0-6,1.18,18.24,18.24,0,0,0-8.84,7.53,16.82,16.82,0,0,0-2.17,5.75L78.73,73.71a14.48,14.48,0,0,0,.19,6.16,13.25,13.25,0,0,0,7.33,8.87,14.07,14.07,0,0,0,6,1.3h4.28A15.45,15.45,0,0,0,102.27,89a17,17,0,0,0,4.74-2.8,18,18,0,0,0,3.57-4.06,18.52,18.52,0,0,0,2.25-5l.54-1.91a4,4,0,0,0-3.85-5.09h-9.29a4,4,0,0,0-3.68,2.43l-.25.57h-.18l2-11.2h.64A4,4,0,0,0,102.65,65h9.12a4,4,0,0,0,4-3.72l.1-1.39a15.67,15.67,0,0,0-.53-5.47,13.56,13.56,0,0,0-2.52-4.84,12.54,12.54,0,0,0-4.46-3.41A13.72,13.72,0,0,0,102.57,45Z"/><path class="cls-2" d="M129.79,88a2,2,0,0,1-1.72-1l-3.71-6.33-1,5.67a2,2,0,0,1-2,1.65H111.9a2,2,0,0,1-1.53-.72,2,2,0,0,1-.44-1.63l5.27-29.88A5,5,0,0,1,118.43,47h9.49a2,2,0,0,1,1.53.71,2,2,0,0,1,.44,1.64l-.7,4,5.36-5.71A2,2,0,0,1,136,47h10.72a2,2,0,0,1,1.83,1.21,2,2,0,0,1-.37,2.16L131.8,67.82l6.08,10.73,2.44,4.24,1.3,2.25a2,2,0,0,1-1.73,3Z"/><path class="cls-1" d="M146.72,49,129.34,67.52l6.8,12c.82,1.42,1.63,2.84,2.45,4.25l1.3,2.25h-10.1l-6.46-11-1.94,11H111.9l5.51-31.23a3,3,0,0,1,1-5.81h9.49l-1.87,10.61L136,49h10.72m0-4H136a4,4,0,0,0-2.91,1.26l-1.38,1.47a3.81,3.81,0,0,0-.73-1.3A4,4,0,0,0,127.92,45h-9.49a7,7,0,0,0-5.38,11.47L108,85.34a4,4,0,0,0,.88,3.27A4,4,0,0,0,111.9,90h9.49a4,4,0,0,0,3.94-3.31l0-.3,1,1.63a4,4,0,0,0,3.45,2h10.1a4,4,0,0,0,3.46-6l-1.3-2.25q-1.22-2.1-2.43-4.23l-5.35-9.44,15.36-16.37A4,4,0,0,0,146.72,45Z"/><path class="cls-2" d="M143.77,88a2,2,0,0,1-1.53-.72,2,2,0,0,1-.44-1.63l6.53-37a2,2,0,0,1,2-1.65h26.45a2,2,0,0,1,1.53.71,2,2,0,0,1,.44,1.64l-1.55,8.76a2,2,0,0,1-2,1.65H159.92l-.24,1.4h14.57a2,2,0,0,1,1.53.71,2,2,0,0,1,.44,1.64l-1.53,8.68a2,2,0,0,1-2,1.65H157.44l-.25,1.44h14.57a2,2,0,0,1,1.53.71,2,2,0,0,1,.44,1.64l-1.54,8.76a2,2,0,0,1-2,1.65Z"/><path class="cls-1" d="M176.75,49l-1.55,8.76h-17l-1,5.4h17l-1.53,8.68h-17l-1,5.44h17L170.22,86H143.77l6.53-37h26.45m0-4H150.3a4,4,0,0,0-3.94,3.31l-6.53,37a4,4,0,0,0,.88,3.27A4,4,0,0,0,143.77,90h26.45a4,4,0,0,0,3.94-3.31L175.7,78a4,4,0,0,0-.61-2.91,3.94,3.94,0,0,0,1.57-2.53l1.53-8.68A4,4,0,0,0,177.6,61a4,4,0,0,0,1.54-2.52l1.55-8.76A4,4,0,0,0,176.75,45Z"/><path class="cls-2" d="M195.11,88a2,2,0,0,1-1.9-1.35l-3.58-10.45-1.78,10.15a2,2,0,0,1-2,1.65h-9.13a2,2,0,0,1-1.53-.72,2,2,0,0,1-.44-1.63l5.27-29.89a5,5,0,0,1,3.23-8.8h8.41a2,2,0,0,1,1.9,1.36l3.56,10.52.54-3.08a5,5,0,0,1,3.23-8.8h9a2,2,0,0,1,1.53.71,2,2,0,0,1,.44,1.64l-6.54,37a2,2,0,0,1-2,1.65Z"/><path class="cls-1" d="M209.93,49,203.4,86h-8.29L189,68.25,185.88,86h-9.13l5.51-31.23a3,3,0,0,1,1-5.81h8.41l6.07,17.94,2.14-12.13a3,3,0,0,1,1-5.81h9m0-4h-9a7,7,0,0,0-5.47,2.63A4,4,0,0,0,191.69,45h-8.41a7,7,0,0,0-5.38,11.46l-5.09,28.88a4,4,0,0,0,3.94,4.7h9.13a4,4,0,0,0,3.94-3.31l.44-2.5,1.06,3.11a4,4,0,0,0,3.79,2.7h8.29a4,4,0,0,0,3.93-3.31l6.54-37A4,4,0,0,0,209.93,45Z"/></g></g></svg>